<svg width="30" height="29" viewBox="0 0 30 29" fill="none" xmlns="http://www.w3.org/2000/svg">
<path fill-rule="evenodd" clip-rule="evenodd" d="M15 29C23.0081 29 29.5 22.5081 29.5 14.5C29.5 6.49187 23.0081 0 15 0C6.99187 0 0.5 6.49187 0.5 14.5C0.5 22.5081 6.99187 29 15 29ZM15 27C8.09644 27 2.5 21.4036 2.5 14.5C2.5 7.59644 8.09644 2 15 2C21.9036 2 27.5 7.59644 27.5 14.5C27.5 21.4036 21.9036 27 15 27ZM9.00353 18.0128L7.50447 19.5119C8.93729 22.1833 11.7565 24 15 24C18.2401 24 21.0567 22.1871 22.491 19.5204L20.9926 18.022C20.0078 20.3593 17.6955 22 15 22C12.301 22 9.98617 20.355 9.00353 18.0128ZM9.5 13C10.6046 13 11.5 12.1046 11.5 11C11.5 9.89543 10.6046 9 9.5 9C8.39543 9 7.5 9.89543 7.5 11C7.5 12.1046 8.39543 13 9.5 13ZM22.5 11C22.5 12.1046 21.6046 13 20.5 13C19.3954 13 18.5 12.1046 18.5 11C18.5 9.89543 19.3954 9 20.5 9C21.6046 9 22.5 9.89543 22.5 11Z" fill="#F8F8F8"/>
</svg>
